<svg xmlns="http://www.w3.org/2000/svg" data-name="Layer 1" viewBox="0 0 500 500" id="advice-trade-associations"><path fill="#aab1ba" d="M495,280.508V219.492a9.223,9.223,0,0,0-9.223-9.223H480.11a9.242,9.242,0,0,1-9.027-7.363A224.7,224.7,0,0,0,439.611,127a9.247,9.247,0,0,1,1.175-11.6l4.028-4.028a9.224,9.224,0,0,0,0-13.044L401.669,55.186a9.224,9.224,0,0,0-13.044,0L384.6,59.214A9.247,9.247,0,0,1,373,60.389a224.7,224.7,0,0,0-75.906-31.472,9.242,9.242,0,0,1-7.363-9.027V14.223A9.223,9.223,0,0,0,280.508,5H219.492a9.223,9.223,0,0,0-9.223,9.223V19.89a9.242,9.242,0,0,1-7.363,9.027A224.7,224.7,0,0,0,127,60.389a9.247,9.247,0,0,1-11.6-1.175l-4.028-4.028a9.224,9.224,0,0,0-13.044,0L55.186,98.331a9.224,9.224,0,0,0,0,13.044l4.028,4.028A9.247,9.247,0,0,1,60.389,127a224.7,224.7,0,0,0-31.472,75.906,9.242,9.242,0,0,1-9.027,7.363H14.223A9.223,9.223,0,0,0,5,219.492v61.016a9.223,9.223,0,0,0,9.223,9.223H19.89a9.242,9.242,0,0,1,9.027,7.363A224.7,224.7,0,0,0,60.389,373a9.247,9.247,0,0,1-1.175,11.6l-4.028,4.028a9.224,9.224,0,0,0,0,13.044l43.145,43.145a9.224,9.224,0,0,0,13.044,0l4.028-4.028a9.247,9.247,0,0,1,11.6-1.175,224.7,224.7,0,0,0,75.906,31.472,9.242,9.242,0,0,1,7.363,9.027v5.667A9.223,9.223,0,0,0,219.492,495h61.016a9.223,9.223,0,0,0,9.223-9.223V480.11a9.242,9.242,0,0,1,7.363-9.027A224.7,224.7,0,0,0,373,439.611a9.247,9.247,0,0,1,11.6,1.175l4.028,4.028a9.224,9.224,0,0,0,13.044,0l43.145-43.145a9.224,9.224,0,0,0,0-13.044l-4.028-4.028a9.247,9.247,0,0,1-1.175-11.6,224.7,224.7,0,0,0,31.472-75.906,9.242,9.242,0,0,1,9.027-7.363h5.667A9.223,9.223,0,0,0,495,280.508Z"></path><ellipse cx="250" cy="250" fill="#fddf7f" rx="189" ry="187.729"></ellipse><ellipse cx="250" cy="250" fill="#83e1e5" rx="135.25" ry="134.34"></ellipse><path fill="#fddf7f" d="M261.716,318.517l22.857,28-1.451.648c-20.411,9.107-45.833,9.107-66.244,0l-1.451-.647,22.857-28Z"></path><path fill="#fddf7f" d="M265.25,297.8v11.858a12.924,12.924,0,0,1-12.924,12.924h-4.652a12.924,12.924,0,0,1-12.924-12.924V297.8Z"></path><path fill="#ecf4f7" d="M277.781,237.729H222.219L237.5,196.686A13.34,13.34,0,0,1,250,188h0a13.34,13.34,0,0,1,12.5,8.686Z"></path><path fill="#fddf7f" d="M222.219 237.729L208.8 224.307a13.813 13.813 0 0 1-4.045-9.766v-8.987a13.811 13.811 0 0 0-13.811-13.811h-41.8v6.06a73.078 73.078 0 0 0 73.078 73.078h0zM277.781 237.729L291.2 224.307a13.813 13.813 0 0 0 4.045-9.766v-8.987a13.811 13.811 0 0 1 13.811-13.811h41.8v6.06a73.078 73.078 0 0 1-73.078 73.078h0z"></path><path fill="#ecf4f7" d="M222.219,237.818h55.562v41.247a23.543,23.543,0,0,1-23.543,23.543h-8.476a23.543,23.543,0,0,1-23.543-23.543Z"></path><rect width="55.563" height="20.765" x="222.219" y="237.818" fill="#fddf7f"></rect><rect width="55.563" height="20.765" x="222.219" y="237.818" fill="#83e1e5"></rect><path fill="#1c1d21" d="M195.414,121.609a5,5,0,0,1,3.873,9.22c-1.722.723-3.448,1.493-5.131,2.287a5,5,0,1,1-4.269-9.043C191.7,123.217,193.559,122.388,195.414,121.609ZM250,389.34c77.334,0,140.25-62.508,140.25-139.34S327.334,110.66,250,110.66a142.168,142.168,0,0,0-28.8,2.941,5,5,0,0,0,2.031,9.792A132.118,132.118,0,0,1,250,120.66c71.82,0,130.25,58.022,130.25,129.34S321.82,379.34,250,379.34,119.75,321.318,119.75,250a128.9,128.9,0,0,1,58.576-108.014,5,5,0,1,0-5.482-8.362A138.866,138.866,0,0,0,109.75,250C109.75,326.832,172.666,389.34,250,389.34ZM130.328,98.3C83.092,135.125,56,190.418,56,250c0,106.271,87.028,192.729,194,192.729S444,356.271,444,250,356.972,57.271,250,57.271a193.015,193.015,0,0,0-87.4,20.621,5,5,0,1,0,4.488,8.936A183.1,183.1,0,0,1,250,67.271c101.458,0,184,81.972,184,182.729S351.458,432.729,250,432.729,66,350.757,66,250c0-56.478,25.688-108.9,70.477-143.814a5,5,0,0,0-6.149-7.887Zm17.536-1.279a4.978,4.978,0,0,0,2.69-.789q1.95-1.246,3.935-2.445a5,5,0,1,0-5.172-8.56q-2.093,1.266-4.152,2.582a5,5,0,0,0,2.7,9.212ZM257.73,83.051l-.449,9.991c3.9.175,7.829.5,11.688.953l1.177-9.931C266.047,83.579,261.87,83.238,257.73,83.051Zm-35.5,12.238L220.5,85.44c-4.077.716-8.178,1.594-12.187,2.61l2.456,9.694C214.541,96.789,218.4,95.962,222.231,95.289Zm23.044-12.347c-4.142.114-8.324.381-12.431.794l1,9.95c3.866-.389,7.8-.641,11.7-.748Zm61.219,9.6-3.338,9.427c3.673,1.3,7.342,2.756,10.907,4.326l4.032-9.151C314.3,95.469,310.4,93.92,306.494,92.537ZM81.78,250.005q0,1.579.031,3.151l10-.182q-.027-1.486-.029-2.974c0-2.906.081-5.85.241-8.75l-9.984-.552C81.866,243.781,81.78,246.911,81.78,250.005Zm12.2,26.287c-.65-3.836-1.163-7.745-1.523-11.617l-9.957.927c.384,4.12.929,8.279,1.621,12.361ZM329.317,102.585l-4.7,8.829c3.434,1.827,6.848,3.809,10.146,5.891l5.338-8.456C336.6,106.636,332.969,104.528,329.317,102.585Zm30.82,21.088c-3.135-2.7-6.412-5.318-9.741-7.782l-5.95,8.038c3.133,2.319,6.216,4.781,9.165,7.321ZM282.458,85.987,280.552,95.8c3.822.742,7.663,1.637,11.416,2.659l2.629-9.648C290.605,87.728,286.521,86.776,282.458,85.987ZM120.746,340.641c-2.258-3.17-4.425-6.464-6.44-9.791l-8.553,5.182c2.143,3.537,4.447,7.04,6.849,10.411Zm52.641-239.463c-3.687,1.877-7.349,3.915-10.884,6.058l5.184,8.552c3.325-2.016,6.769-3.933,10.237-5.7Zm11.3-5.235,3.863,9.224c3.591-1.5,7.282-2.892,10.973-4.125l-3.169-9.484C192.429,92.869,188.5,94.344,184.686,95.943ZM124.277,138.96l7.45,6.672c2.594-2.9,5.333-5.737,8.139-8.441l-6.937-7.2C129.946,132.863,127.035,135.881,124.277,138.96Zm24.328-9.583c3-2.485,6.122-4.89,9.291-7.147l-5.8-8.147c-3.37,2.4-6.694,4.957-9.877,7.6ZM401.682,322.349l-9-4.356c-1.7,3.507-3.548,6.99-5.5,10.353l8.646,5.023C397.9,329.789,399.875,326.082,401.682,322.349Zm-293.064-1.737c-1.758-3.465-3.408-7.042-4.9-10.633l-9.231,3.846c1.591,3.82,3.347,7.626,5.217,11.313Zm27.1,38.051c-2.7-2.8-5.335-5.742-7.822-8.736l-7.692,6.392c2.645,3.181,5.442,6.306,8.316,9.285ZM99.63,299.015c-1.221-3.7-2.316-7.484-3.252-11.256l-9.7,2.411c1,4.015,2.162,8.045,3.461,11.98Zm24.6-144.364-7.923-6.1c-2.528,3.283-4.962,6.7-7.236,10.158l8.356,5.494C119.568,160.951,121.857,157.737,124.234,154.651ZM239.125,416.779l.633-9.981c-3.9-.246-7.82-.64-11.667-1.169l-1.363,9.906C230.816,416.1,234.988,416.517,239.125,416.779Zm-24.67-3.4,2.09-9.779c-3.806-.813-7.629-1.78-11.365-2.874l-2.809,9.6C206.343,411.491,210.409,412.519,214.455,413.383Zm37.119,3.732c4.145-.038,8.331-.228,12.447-.565l-.819-9.967c-3.873.318-7.815.5-11.718.532Zm49.075-7.7c3.953-1.239,7.906-2.641,11.749-4.167l-3.69-9.294c-3.614,1.435-7.332,2.753-11.049,3.918Zm-110.1-3.03,3.516-9.362c-3.646-1.369-7.288-2.893-10.826-4.53l-4.2,9.075C182.8,403.307,186.669,404.928,190.545,406.383Zm133.247-6.158c3.717-1.805,7.416-3.774,11-5.854l-5.023-8.646c-3.367,1.955-6.846,3.807-10.34,5.5Zm-47.4,14.851c4.086-.639,8.2-1.441,12.232-2.382l-2.273-9.738c-3.79.885-7.662,1.639-11.506,2.24ZM88.267,203.888l9.609,2.771c1.08-3.746,2.315-7.494,3.673-11.139l-9.371-3.49C90.732,195.911,89.417,199.9,88.267,203.888Zm-5.079,24.4,9.916,1.295c.5-3.859,1.161-7.747,1.953-11.553l-9.791-2.036C84.423,220.043,83.724,224.18,83.188,228.287Zm13.783-47.781,9.082,4.184c1.627-3.53,3.411-7.048,5.3-10.457l-8.742-4.856C100.6,173.005,98.7,176.749,96.971,180.506Zm70.946,215.4,4.861-8.738c-3.4-1.892-6.775-3.937-10.034-6.08l-5.494,8.355C160.714,391.724,164.3,393.9,167.917,395.909ZM137.5,374.251c3.085,2.758,6.313,5.437,9.595,7.962l6.1-7.926c-3.087-2.375-6.125-4.895-9.026-7.49Zm236.437-26.569,7.806,6.25c2.589-3.235,5.088-6.605,7.426-10.019l-8.25-5.651C378.719,341.472,376.369,344.641,373.935,347.682ZM405.493,220.8c.723,3.815,1.309,7.713,1.744,11.587l9.938-1.117c-.463-4.121-1.088-8.269-1.856-12.329ZM418.22,250c0-2.1-.04-4.22-.118-6.3l-9.993.375c.074,1.957.111,3.951.111,5.926,0,3.907-.146,7.847-.434,11.711l9.973.743C418.064,258.343,418.22,254.153,418.22,250Zm-7.391,49.139-9.553-2.954c-1.15,3.719-2.458,7.443-3.886,11.067l9.3,3.666C408.214,307.061,409.605,303.1,410.829,299.139Zm5.544-24.3-9.889-1.484c-.577,3.846-1.308,7.719-2.173,11.513l9.75,2.223C414.981,283.057,415.76,278.935,416.373,274.842ZM399.417,198.19c1.29,3.669,2.456,7.435,3.465,11.19l9.658-2.594c-1.075-4-2.315-8.007-3.689-11.913ZM357.978,364.845l6.8,7.331c3.035-2.816,6-5.779,8.819-8.808l-7.325-6.808C363.624,359.408,360.833,362.2,357.978,364.845Zm-18.305,14.623,5.646,8.253c3.412-2.335,6.783-4.829,10.017-7.413l-6.242-7.812C346.052,374.926,342.882,377.272,339.673,379.468Zm50.345-202.7c1.823,3.431,3.541,6.977,5.105,10.539l9.156-4.019c-1.664-3.791-3.491-7.563-5.431-11.213Zm-27.81-37.537c2.755,2.752,5.44,5.641,7.981,8.586l7.573-6.532c-2.7-3.132-5.558-6.2-8.488-9.13Zm15.307,17.739c2.314,3.123,4.543,6.376,6.624,9.668l8.453-5.342c-2.212-3.5-4.581-6.959-7.042-10.28ZM149.141,186.743h41.8a18.832,18.832,0,0,1,18.812,18.811v8.987a8.754,8.754,0,0,0,2.581,6.23l7.917,7.918,12.564-33.748a17.926,17.926,0,0,1,.87-1.941H222.219a5,5,0,0,1,0-10H250a18.42,18.42,0,0,1,17.188,11.941l12.563,33.748,7.918-7.918a8.757,8.757,0,0,0,2.58-6.23v-8.987a18.833,18.833,0,0,1,18.812-18.811h41.8a5,5,0,0,1,5,5v6.06a78.166,78.166,0,0,1-73.078,77.9v3.36a28.537,28.537,0,0,1-12.531,23.617v6.973a17.808,17.808,0,0,1-2.243,8.662l20.44,25.044a5,5,0,0,1-1.837,7.728l-1.451.647a88.787,88.787,0,0,1-70.318,0l-1.451-.647a5,5,0,0,1-1.837-7.728l20.44-25.044a17.808,17.808,0,0,1-2.243-8.662v-6.973a28.537,28.537,0,0,1-12.531-23.617V275.7a78.166,78.166,0,0,1-73.078-77.9v-6.06A5,5,0,0,1,149.141,186.743ZM254.893,297.575V263.583h-9.786v33.992c.219.007.434.033.655.033h8.476C254.459,297.608,254.674,297.582,254.893,297.575Zm17.888-43.992V242.818H227.219v10.765Zm-45.562,25.481a18.523,18.523,0,0,0,7.888,15.153V263.583h-7.888v15.481Zm49.229,65.411L260.88,325.4a17.806,17.806,0,0,1-8.554,2.178h-4.652a17.806,17.806,0,0,1-8.554-2.178l-15.568,19.075A79.225,79.225,0,0,0,276.448,344.475Zm-16.2-37.51a28.5,28.5,0,0,1-6.012.643h-8.476a28.5,28.5,0,0,1-6.012-.643v2.689a7.933,7.933,0,0,0,7.924,7.924h4.652a7.933,7.933,0,0,0,7.924-7.924Zm12.531-36.084v-7.3h-7.888v30.634a18.523,18.523,0,0,0,7.888-15.153Zm10-31.081v25.9a68.17,68.17,0,0,0,63.078-67.9v-1.06h-36.8a8.822,8.822,0,0,0-8.812,8.811v8.987a18.687,18.687,0,0,1-5.509,13.3Zm-53.366-7.071h41.17l-12.769-34.3a8.34,8.34,0,0,0-15.632,0ZM154.141,197.8a68.17,68.17,0,0,0,63.078,67.9V239.8l-11.958-11.958a18.684,18.684,0,0,1-5.51-13.3v-8.987a8.822,8.822,0,0,0-8.812-8.811h-36.8Zm331.636,7.466H480.11a4.219,4.219,0,0,1-4.135-3.4A229.034,229.034,0,0,0,443.8,124.274a4.225,4.225,0,0,1,.517-5.336l4.029-4.027a14.221,14.221,0,0,0,0-20.115L405.2,51.65a14.242,14.242,0,0,0-20.115,0l-4.026,4.028a4.227,4.227,0,0,1-5.337.518,228.992,228.992,0,0,0-77.594-32.171,4.221,4.221,0,0,1-3.4-4.136V14.223A14.239,14.239,0,0,0,280.508,0H219.492a14.239,14.239,0,0,0-14.223,14.223V19.89a4.221,4.221,0,0,1-3.4,4.136A228.979,228.979,0,0,0,124.275,56.2a4.227,4.227,0,0,1-5.337-.518l-4.028-4.028a14.24,14.24,0,0,0-20.114,0L51.651,94.8a14.221,14.221,0,0,0,0,20.115l4.029,4.028a4.225,4.225,0,0,1,.516,5.337,229.039,229.039,0,0,0-32.171,77.594,4.219,4.219,0,0,1-4.135,3.4H14.223A14.239,14.239,0,0,0,0,219.492v61.016a14.239,14.239,0,0,0,14.223,14.223H19.89a4.219,4.219,0,0,1,4.135,3.4c1.282,6.04,2.828,12.106,4.6,18.028A5,5,0,0,0,38.2,313.3c-1.69-5.665-3.169-11.466-4.393-17.241A14.322,14.322,0,0,0,19.89,284.731H14.223A4.228,4.228,0,0,1,10,280.508V219.492a4.228,4.228,0,0,1,4.223-4.223H19.89a14.322,14.322,0,0,0,13.919-11.326A219.027,219.027,0,0,1,64.58,129.726a14.325,14.325,0,0,0-1.83-17.859l-4.028-4.029a4.219,4.219,0,0,1,0-5.971l43.144-43.145a4.23,4.23,0,0,1,5.973,0l4.028,4.028a14.327,14.327,0,0,0,17.859,1.831,219,219,0,0,1,74.216-30.772A14.323,14.323,0,0,0,215.269,19.89V14.223A4.228,4.228,0,0,1,219.492,10h61.016a4.228,4.228,0,0,1,4.223,4.223V19.89a14.323,14.323,0,0,0,11.327,13.919,218.992,218.992,0,0,1,74.217,30.773,14.332,14.332,0,0,0,17.859-1.832l4.026-4.028a4.231,4.231,0,0,1,5.974,0l43.144,43.146a4.219,4.219,0,0,1,0,5.971l-4.028,4.028a14.325,14.325,0,0,0-1.831,17.858,219.025,219.025,0,0,1,30.772,74.217,14.322,14.322,0,0,0,13.919,11.327h5.667A4.228,4.228,0,0,1,490,219.492v61.016a4.228,4.228,0,0,1-4.223,4.223H480.11a14.322,14.322,0,0,0-13.919,11.326,219,219,0,0,1-30.771,74.217,14.325,14.325,0,0,0,1.83,17.859l4.028,4.029a4.219,4.219,0,0,1,0,5.971l-43.144,43.145a4.23,4.23,0,0,1-5.973,0l-4.028-4.028a14.329,14.329,0,0,0-17.859-1.831,219,219,0,0,1-74.216,30.772,14.323,14.323,0,0,0-11.327,13.919v5.667A4.228,4.228,0,0,1,280.508,490H219.492a4.228,4.228,0,0,1-4.223-4.223V480.11a14.323,14.323,0,0,0-11.327-13.919,218.992,218.992,0,0,1-74.217-30.773,14.33,14.33,0,0,0-17.859,1.832l-4.026,4.028a4.231,4.231,0,0,1-5.974,0L58.722,398.132a4.219,4.219,0,0,1,0-5.971l4.028-4.028a14.325,14.325,0,0,0,1.831-17.858A221.963,221.963,0,0,1,52.468,349.19a5,5,0,0,0-8.932,4.5A231.78,231.78,0,0,0,56.2,375.726a4.225,4.225,0,0,1-.517,5.336l-4.029,4.027a14.221,14.221,0,0,0,0,20.115L94.8,448.35a14.242,14.242,0,0,0,20.115,0l4.027-4.028a4.225,4.225,0,0,1,5.336-.518,228.992,228.992,0,0,0,77.594,32.171,4.221,4.221,0,0,1,3.4,4.136v5.667A14.239,14.239,0,0,0,219.492,500h61.016a14.239,14.239,0,0,0,14.223-14.223V480.11a4.221,4.221,0,0,1,3.4-4.136A228.979,228.979,0,0,0,375.725,443.8a4.225,4.225,0,0,1,5.337.518l4.028,4.028a14.24,14.24,0,0,0,20.114,0l43.145-43.145a14.221,14.221,0,0,0,0-20.115l-4.029-4.028a4.225,4.225,0,0,1-.516-5.337,229.02,229.02,0,0,0,32.171-77.594,4.219,4.219,0,0,1,4.135-3.4h5.667A14.239,14.239,0,0,0,500,280.508V219.492A14.239,14.239,0,0,0,485.777,205.269ZM45.271,333.362q-.971-2.379-1.887-4.783a5,5,0,0,0-9.344,3.561q.959,2.514,1.971,5a5,5,0,0,0,9.26-3.776Z"></path></svg>