<svg xmlns="http://www.w3.org/2000/svg" data-name="Layer 1" viewBox="0 0 64 64" id="data-network"><path d="M45.06,49.67a1.583,1.583,0,0,0,.48.33,1.6722,1.6722,0,0,0,.58.1094A1.5779,1.5779,0,0,0,46.69,50a1.5142,1.5142,0,0,0,.49-.33,1.6268,1.6268,0,0,0,.33-.49,1.566,1.566,0,0,0,.11-.57,1.361,1.361,0,0,0-.03-.29,1.3076,1.3076,0,0,0-.09-.2793,1.2457,1.2457,0,0,0-.13-.26,1.3945,1.3945,0,0,0-.19-.23,1.5479,1.5479,0,0,0-2.12,0,1.5155,1.5155,0,0,0-.4405,1.06,1.5561,1.5561,0,0,0,.11.57A1.5028,1.5028,0,0,0,45.06,49.67Zm.48-21.21a1.4684,1.4684,0,0,0,1.64-.33,1.46,1.46,0,0,0,.32-1.63,1.2465,1.2465,0,0,0-.13-.26,2.0516,2.0516,0,0,0-.19-.23,1.2664,1.2664,0,0,0-.23-.18,1.2811,1.2811,0,0,0-.26-.1406,1.3368,1.3368,0,0,0-.28-.09,1.8624,1.8624,0,0,0-.58,0,1.6406,1.6406,0,0,0-.29.09,1.1863,1.1863,0,0,0-.25.1406.9916.9916,0,0,0-.23.18,1.5036,1.5036,0,0,0-.33.49,2.785,2.785,0,0,0-.08.28,1.4938,1.4938,0,0,0-.03.289A1.4432,1.4432,0,0,0,45.06,28.13,1.289,1.289,0,0,0,45.54,28.46Zm.58,10.8994a1.5779,1.5779,0,0,0,.57-.1094,1.6336,1.6336,0,0,0,.49-.33,1.5043,1.5043,0,0,0,.33-.49,1.566,1.566,0,0,0,.11-.57,1.5149,1.5149,0,0,0-.44-1.06,2.1077,2.1077,0,0,0-.23-.19,1.2927,1.2927,0,0,0-.26-.13,1.3486,1.3486,0,0,0-.28-.09,1.5,1.5,0,0,0-1.79,1.47,1.4589,1.4589,0,0,0,.4405,1.06A1.4953,1.4953,0,0,0,46.12,39.3594ZM53.5667,15.65C53.2392,10.1025,44.09,5.9541,32,5.9541S10.7608,10.1025,10.4333,15.65a1.5081,1.5081,0,0,0-.031.3041V48.0459c0,5.7012,9.2852,10,21.5977,10s21.5977-4.2988,21.5977-10V15.9541A1.5081,1.5081,0,0,0,53.5667,15.65Zm-2.969,32.3959c0,3.31-7.6377,7-18.5977,7s-18.5977-3.69-18.5977-7V42.6722C17.0933,45.5822,23.8776,47.46,32,47.46s14.9067-1.8778,18.5977-4.7878Zm0-10.5859c0,3.31-7.6377,7-18.5977,7s-18.5977-3.69-18.5977-7V31.9193C17.0933,34.8293,23.8776,36.707,32,36.707s14.9067-1.8777,18.5977-4.7877Zm0-10.753c0,3.3106-7.6377,7-18.5977,7s-18.5977-3.6894-18.5977-7V21.1663c3.691,2.91,10.4753,4.7878,18.5977,4.7878s14.9067-1.8777,18.5977-4.7878ZM32,22.9541c-10.96,0-18.5977-3.6895-18.5977-7s7.6377-7,18.5977-7,18.5977,3.6895,18.5977,7S42.96,22.9541,32,22.9541Z"></path></svg>