<svg xmlns="http://www.w3.org/2000/svg" width="100" height="128" fill-rule="evenodd" clip-rule="evenodd" image-rendering="optimizeQuality" shape-rendering="geometricPrecision" text-rendering="geometricPrecision" viewBox="0 0 3391 4358" id="mechanic"><path d="M2781 2109c-6,194 94,384 276,484 68,37 140,58 213,63 36,3 66,18 90,46 23,28 33,60 30,96 -22,260 -103,511 -237,734 -18,31 -45,51 -80,60 -36,9 -69,4 -100,-15 -53,-32 -112,-56 -176,-68 -288,-54 -566,135 -620,423 -15,76 -12,151 5,222 8,35 3,69 -16,99 -19,31 -46,51 -81,59 -259,61 -523,59 -772,2 -35,-9 -63,-28 -82,-59 -19,-30 -24,-64 -16,-99 14,-60 18,-124 10,-189 -37,-290 -303,-496 -594,-459 -77,10 -148,36 -210,74 -31,19 -64,24 -99,16 -35,-9 -62,-29 -81,-60 -30,-49 -58,-101 -84,-155 -88,-188 -139,-383 -156,-578 -4,-36 7,-68 30,-96 23,-28 53,-43 89,-46 62,-5 124,-21 183,-49 202,-95 316,-301 303,-511l1 0 12 2 1 1 11 2 1 0 9 2 3 0 13 2 11 2 3 1c8,1 16,3 24,4l13 2c13,2 26,4 39,6l13 2 11 2 2 0 5 1 8 1 2 0 11 2 13 2 1 0 12 2 5 0 8 1 10 2 3 0 13 2 1 0 12 1 6 1 8 1 1 0 12 2 13 1 1 0 12 2 2 0 25 3 13 1 1 0 12 1 12 2 1 0 10 1 4 0 13 1 1 0 12 1 6 1 7 1 10 1 4 0 13 1 1 0 12 1 6 1 8 0 10 1 3 0 13 1 1 0 13 1 5 1 8 0 10 1 3 0 14 1 1 0 0 0c12,1 23,2 35,2l4 1 13 0 1 1c12,0 24,1 36,2l0 0 3 0 13 0 1 0 18 1 8 1 10 0 17 1 1 0 12 0 5 1 8 0 10 0 4 1 13 0 1 0 12 1 6 0 7 0 10 0 4 0 13 1c-251,131 -355,438 -233,696 125,265 441,378 706,253 265,-125 378,-441 253,-706 -51,-108 -134,-191 -232,-242l11 -1 2 0 27 -1 7 0 6 0 1 0 12 0 13 -1 3 0 10 0 8 -1 6 0 11 0 2 0 13 -1 3 0 10 0 8 -1 5 0 5 0 17 -1 5 0 3 -1 10 0 8 0 5 -1 13 0 1 0 13 -1 4 0 9 -1 9 -1 4 0 13 -1 1 0 13 -1 4 0 9 0 1 0 12 -1 14 -1 0 0 13 -1 4 -1 9 0 9 -1 4 0 13 -1 1 0 13 -1 5 -1 8 -1 9 0 4 -1 13 -1 1 0 12 -1 12 -1 2 0 10 -1 3 -1 13 -1 1 0 12 -1 6 -1 7 -1 13 -1 14 -2 1 0 12 -1 11 -1 2 -1 10 -1 3 0 13 -2 2 0 11 -1 1 -1 11 -1 1 0 11 -1 2 -1 13 -1 2 -1 11 -1 7 -1 6 -1 13 -2 13 -2 3 0 10 -2 7 -1 6 0 11 -2 1 0 13 -2 12 -2 1 0 8 -2 5 -1 12 -2 1 0 12 -2 11 -2 2 0 8 -1 5 -1 12 -2 0 -1zm-867 -1967c180,30 347,100 491,200l0 432c0,63 52,115 115,115 64,0 116,-52 116,-115l0 -222c182,212 292,488 292,790 0,49 -3,97 -9,145 242,62 389,143 389,232 0,472 -3194,472 -3194,0 0,-89 146,-170 389,-232 -6,-48 -9,-96 -9,-145 0,-341 141,-650 367,-871l0 303c0,63 52,115 116,115 63,0 116,-52 116,-115l0 -480c125,-74 266,-127 415,-152l0 -49c0,-51 42,-93 94,-93l218 0c52,0 94,42 94,93l0 49zm1002 1344c-17,-4 -31,-8 0,0zm-2390 -5c-7,1 -14,3 -21,5 7,-2 14,-4 21,-5zm145 634c8,1 16,3 24,4l-24 -4z"></path></svg>