<svg xmlns="http://www.w3.org/2000/svg" viewBox="0 0 60 60" id="remote-device-access"><path d="M57 30H43a3 3 0 0 0-3 3v24a3 3 0 0 0 3 3h14a3 3 0 0 0 3-3V33a3 3 0 0 0-3-3Zm-6 27a1 1 0 1 1-1-1 1 1 0 0 1 1 1Zm-9-3V36h16v18Zm1-22h14a1 1 0 0 1 1 1v1H42v-1a1 1 0 0 1 1-1Zm-1 25v-1h5.184a2.809 2.809 0 0 0 0 2H43a1 1 0 0 1-1-1Zm15 1h-4.184a2.809 2.809 0 0 0 0-2H58v1a1 1 0 0 1-1 1Z"></path><path d="M55.707 39.293a1 1 0 0 0-1.414 0l-10 10a1 1 0 1 0 1.414 1.414l10-10a1 1 0 0 0 0-1.414zM45 43a1 1 0 0 0 .707-.293l3-3a1 1 0 0 0-1.414-1.414l-3 3A1 1 0 0 0 45 43zm9.293 4.293-3 3a1 1 0 1 0 1.414 1.414l3-3a1 1 0 0 0-1.414-1.414zM16 32a16.013 16.013 0 0 0 14.63-9.55.963.963 0 0 0 .05-.1 15.924 15.924 0 0 0 0-12.7.963.963 0 0 0-.05-.1 15.981 15.981 0 0 0-29.26 0 .963.963 0 0 0-.05.1 15.924 15.924 0 0 0 0 12.7.963.963 0 0 0 .05.1A16.013 16.013 0 0 0 16 32zM2.939 11h4.5a27.951 27.951 0 0 0-.409 4H2.051a13.863 13.863 0 0 1 .888-4zm26.122 10h-4.5a27.951 27.951 0 0 0 .409-4h4.977a13.863 13.863 0 0 1-.886 4zM15 23v6.833C12.884 29.2 11.045 26.589 9.979 23zm-5.513-2a25.53 25.53 0 0 1-.461-4H15v4zM17 29.833V23h5.021c-1.066 3.589-2.905 6.2-5.021 6.833zM17 21v-4h5.974a25.53 25.53 0 0 1-.461 4zm12.949-6h-4.977a27.951 27.951 0 0 0-.409-4h4.5a13.863 13.863 0 0 1 .886 4zm-6.975 0H17v-4h5.513a25.53 25.53 0 0 1 .461 4zM17 9V2.167c2.116.638 3.955 3.244 5.021 6.833zm-2-6.833V9H9.979C11.045 5.411 12.884 2.805 15 2.167zM15 11v4H9.026a25.53 25.53 0 0 1 .461-4zm-7.972 6a27.951 27.951 0 0 0 .409 4h-4.5a13.863 13.863 0 0 1-.888-4zm-3.134 6h3.994a16.894 16.894 0 0 0 2.768 5.935A14.077 14.077 0 0 1 3.894 23zm17.45 5.935A16.894 16.894 0 0 0 24.112 23h3.994a14.072 14.072 0 0 1-6.762 5.935zM28.106 9h-3.994a16.894 16.894 0 0 0-2.768-5.935A14.072 14.072 0 0 1 28.106 9zm-17.45-5.935A16.894 16.894 0 0 0 7.888 9H3.894a14.077 14.077 0 0 1 6.762-5.935zm37.051 20.228a1 1 0 0 0-1.414 1.414l3 3a1 1 0 0 0 1.416 0l3-3a1 1 0 0 0-1.414-1.414L51 24.586V24a12.013 12.013 0 0 0-12-12h-4a1 1 0 0 0 0 2h4a10.011 10.011 0 0 1 10 10v.586zM27 50h8a1 1 0 0 0 0-2h-8a10.011 10.011 0 0 1-10-10v-.586l1.293 1.293a1 1 0 0 0 1.414-1.414l-3-3a.99.99 0 0 0-.326-.217 1 1 0 0 0-.764 0 .99.99 0 0 0-.326.217l-3 3a1 1 0 0 0 1.414 1.414L15 37.414V38a12.013 12.013 0 0 0 12 12z"></path></svg>