<svg xmlns="http://www.w3.org/2000/svg" width="128" height="128" id="website"><path d="M44.782 53.362a1.764 1.764 0 0 0-2.094 1.396l-2.541 12.701-3.018-6.035c-.604-1.205-2.577-1.205-3.182 0l-3.018 6.035-2.541-12.701a1.772 1.772 0 0 0-2.094-1.396 1.778 1.778 0 0 0-1.395 2.092l3.558 17.787a1.782 1.782 0 0 0 1.508 1.418 1.762 1.762 0 0 0 1.827-.971l3.744-7.49 3.746 7.49a1.78 1.78 0 0 0 1.592.984c.078 0 .156-.008.235-.014a1.786 1.786 0 0 0 1.509-1.418l3.558-17.787a1.776 1.776 0 0 0-1.394-2.091zm28.46 0a1.763 1.763 0 0 0-2.092 1.396l-2.541 12.701-3.019-6.035c-.604-1.205-2.577-1.205-3.183 0l-3.018 6.035-2.541-12.701a1.769 1.769 0 0 0-2.094-1.396 1.778 1.778 0 0 0-1.394 2.092l3.558 17.787a1.783 1.783 0 0 0 1.508 1.418 1.756 1.756 0 0 0 1.827-.971L64 66.198l3.745 7.49a1.78 1.78 0 0 0 1.591.984c.079 0 .156-.008.237-.014a1.787 1.787 0 0 0 1.508-1.418l3.558-17.787a1.78 1.78 0 0 0-1.397-2.091zm28.462 0a1.764 1.764 0 0 0-2.093 1.396l-2.542 12.701-3.018-6.035c-.604-1.205-2.578-1.205-3.183 0l-3.017 6.035-2.541-12.701a1.767 1.767 0 0 0-2.093-1.396 1.778 1.778 0 0 0-1.395 2.092l3.557 17.787a1.786 1.786 0 0 0 1.509 1.418 1.768 1.768 0 0 0 1.828-.971l3.744-7.49 3.745 7.49a1.78 1.78 0 0 0 1.592.984c.077 0 .155-.008.236-.014a1.787 1.787 0 0 0 1.507-1.418l3.558-17.787a1.777 1.777 0 0 0-1.394-2.091z"></path><path d="M106.913 42.654h-6.409c-.029-.087-.05-.176-.093-.259C93.366 28.633 79.413 20.084 64 20.084s-29.366 8.549-36.413 22.311c-.042.083-.064.172-.092.259h-6.408c-4.902 0-8.894 3.988-8.894 8.893v24.902c0 4.902 3.991 8.896 8.894 8.896h6.409c.028.087.05.176.093.26C34.634 99.367 48.587 107.916 64 107.916s29.366-8.549 36.413-22.311c.042-.083.064-.172.092-.26h6.408c4.902 0 8.894-3.994 8.894-8.896V51.547c-.001-4.904-3.992-8.893-8.894-8.893zm-41.135-1.226V23.825c5.992 1.105 11.567 7.7 14.821 17.604H65.778zM62.22 23.825v17.604H47.4c3.254-9.904 8.829-16.498 14.82-17.604zm33.568 17.603H84.313c-2.078-6.817-5.138-12.279-8.799-15.971 8.349 2.699 15.557 8.292 20.274 15.971zM52.484 25.457c-3.662 3.691-6.721 9.154-8.799 15.971H32.21c4.718-7.679 11.925-13.272 20.274-15.971zm9.737 61.115v17.604c-5.992-1.105-11.567-7.7-14.821-17.604h14.821zm3.557 17.604V86.572h14.82c-3.253 9.904-8.828 16.497-14.82 17.604zM32.211 86.572h11.474c2.078 6.817 5.138 12.279 8.799 15.971-8.349-2.699-15.556-8.292-20.273-15.971zm43.303 15.971c3.662-3.692 6.721-9.154 8.799-15.971h11.475c-4.717 7.679-11.924 13.272-20.274 15.971zm36.735-26.094a5.342 5.342 0 0 1-5.336 5.338H21.086a5.343 5.343 0 0 1-5.336-5.338V51.547a5.342 5.342 0 0 1 5.336-5.336h85.826a5.342 5.342 0 0 1 5.336 5.336v24.902z"></path></svg>