<?xml version="1.0" encoding="UTF-8"?>
<!DOCTYPE svg PUBLIC "-//W3C//DTD SVG 1.1//EN" "http://www.w3.org/Graphics/SVG/1.1/DTD/svg11.dtd">
<!-- Creator: CorelDRAW -->
<svg xmlns="http://www.w3.org/2000/svg" xml:space="preserve" width="1.99999in" height="1.99999in" version="1.1" style="shape-rendering:geometricPrecision; text-rendering:geometricPrecision; image-rendering:optimizeQuality; fill-rule:evenodd; clip-rule:evenodd"
viewBox="0 0 2000 2000"
 xmlns:xlink="http://www.w3.org/1999/xlink">
 <defs>
  <style type="text/css">
   <![CDATA[
    .fil0 {fill:#006EA7}
    .fil1 {fill:#59AAE7}
   ]]>
  </style>
 </defs>
 <g id="Layer_x0020_1">
  <metadata id="CorelCorpID_0Corel-Layer"/>
  <path class="fil0" d="M1070 1486l-140 0c-12,0 -21,-8 -23,-19l-25 -155c-34,-12 -65,-30 -93,-54l-147 56c-11,4 -22,0 -28,-10l-70 -122c-6,-9 -4,-22 5,-29l121 -99c-5,-36 -5,-72 0,-108l-121 -99c-9,-7 -11,-20 -5,-29l70 -122c6,-10 17,-14 28,-10l147 56c28,-24 59,-42 93,-54l25 -155c2,-11 11,-19 23,-19l140 0c12,0 21,8 23,19l25 155c34,12 65,30 93,54l147 -56c11,-4 22,0 28,10l71 122c5,9 3,22 -6,29l-121 99c5,36 5,72 0,108l121 99c9,7 11,19 6,29l-71 122c-6,10 -17,14 -28,10l-147 -56c-28,23 -59,42 -93,54l-25 155c-2,11 -11,19 -23,19zm-70 -257c-126,0 -229,-103 -229,-229 0,-126 103,-229 229,-229 126,0 229,103 229,229 0,126 -103,229 -229,229zm0 -412c-101,0 -183,82 -183,183 0,101 82,183 183,183 101,0 183,-82 183,-183 0,-101 -82,-183 -183,-183zm-393 782c-5,0 -9,-2 -13,-4 -197,-135 -314,-357 -314,-595 0,-389 311,-708 697,-720l0 -110c0,-19 21,-30 36,-19l189 133c13,9 13,28 0,38l-189 133c-15,10 -36,0 -36,-19l0 -110c-361,12 -651,310 -651,674 0,223 110,431 294,557 18,12 9,42 -13,42zm416 -1385l0 178 126 -89 -126 -89zm0 1460c361,-12 651,-310 651,-674 0,-223 -110,-431 -294,-557 -24,-17 1,-55 26,-38 197,135 314,357 314,595 0,389 -311,708 -697,720l0 110c0,19 -21,30 -36,19l-189 -133c-13,-9 -13,-28 0,-38l189 -133c15,-10 36,0 36,19l0 110zm-172 23l126 89 0 -178 -126 89zm98 -256l102 0 24 -149c5,-29 45,-13 117,-77 6,-6 15,-7 23,-4l141 53 51 -88 -117 -95c-22,-18 11,-50 -8,-140 -2,-8 2,-17 8,-22l117 -95 -51 -88 -141 53c-27,11 -34,-33 -125,-63 -8,-2 -14,-9 -15,-18l-24 -149 -102 0 -24 149c-5,29 -45,13 -117,77 -6,6 -15,7 -23,4l-141 -53 -51 88 117 95c22,18 -11,50 8,140 2,8 -1,17 -8,22l-117 95 51 88 141 -53c27,-11 34,33 125,63 8,2 14,9 15,18l24 149z"/>
  <path class="fil1" d="M1000 771c126,0 229,103 229,229 0,126 -103,229 -229,229 -126,0 -229,-103 -229,-229 0,-126 103,-229 229,-229zm-51 670l102 0 24 -149c5,-29 45,-13 117,-77 6,-6 15,-7 23,-4l141 53 51 -88 -117 -95c-22,-18 11,-50 -8,-140 -2,-8 2,-17 8,-22l117 -95 -51 -88 -141 53c-27,11 -34,-33 -125,-63 -8,-2 -14,-9 -15,-18l-24 -149 -102 0 -24 149c-5,29 -45,13 -117,77 -6,6 -15,7 -23,4l-141 -53 -51 88 117 95c22,18 -11,50 8,140 2,8 -1,17 -8,22l-117 95 51 88 141 -53c27,-11 34,33 125,63 8,2 14,9 15,18l24 149z"/>
  <polygon class="fil1" points="1023,392 1149,303 1023,214 "/>
  <polygon class="fil1" points="977,1608 851,1697 977,1786 "/>
  <path class="fil1" d="M817 1000c0,101 82,183 183,183 101,0 183,-82 183,-183 0,-101 -82,-183 -183,-183 -101,0 -183,82 -183,183z"/>
 </g>
</svg>
