<svg xmlns="http://www.w3.org/2000/svg" viewBox="0 0 512 512" id="cloud-data"><g data-name="48. Data cloud"><path fill="#e2f2fe" d="M468.41 255c0 86.62-71.32 156.38-157.94 156.38H108.58C53.8 411.42 8.4 367.6 8 312.82a99.4 99.4 0 0 1 137.25-92.59 12 12 0 0 0 16.15-7.88 156.47 156.47 0 0 1 307 42.69Z"></path><path fill="#cfebfc" d="M468.41 255A156.44 156.44 0 0 1 312 411.42H107.34c-3.38 0-6.73-.17-10-.5A96 96 0 0 1 84 408.65a107.81 107.81 0 0 1 24.77-23.8c18.33-12.6 35.76-15.72 54.28-15.38 29.59.55 62 10 105.14 3.88 87.48-12.4 173.49-82.19 184.4-156.24a116.67 116.67 0 0 0 .48-29.87A155.79 155.79 0 0 1 468.41 255Z"></path><path fill="#f1f8fe" d="M413.27 135.75c-31.79-11.63-78-20-128.46-1.14-60.52 22.58-90.59 70.56-103.39 97.87a23.68 23.68 0 0 1-26.42 13.2c-36-7.8-73.77 3.68-98.26 30.91-25.81 28.72-32.83 70.51-18.06 107.29A99.1 99.1 0 0 1 8 310c1.07-52 42.73-94.78 94.71-97.14a99.34 99.34 0 0 1 42.43 7.35 12 12 0 0 0 16.24-7.85 156.49 156.49 0 0 1 251.87-76.59Z"></path><path fill="#8ab2ff" d="M454.4 191.27c-19.71-6.06-44.06-9.64-70.4-9.64-65.72 0-119 22.27-119 49.74V419c0 27.46 53.28 49.73 119 49.73S503 446.46 503 419V231.37c0-16.46-19.13-31.05-48.6-40.1Z"></path><path fill="#a6c4ff" d="M384 181.63c65.72 0 119 22.27 119 49.73s-53.28 49.74-119 49.74-119-22.27-119-49.74c0-7 3.46-13.67 9.72-19.71 11.13-10.75 31.06-19.54 56-24.77a261.87 261.87 0 0 1 53.28-5.25Z"></path><path fill="#7da7fa" d="M503 231.36V419c0 27.46-53.28 49.73-119 49.73a257.07 257.07 0 0 1-59-6.53c53.21-47.44 85.85-110.57 82.95-182.11 54.24-4.63 95.05-24.69 95.05-48.73Z"></path><path fill="#2c2c3d" d="M451.88 280.22a7.8 7.8 0 0 0 2.27-.33l.58-.17a8 8 0 0 0-4.54-15.34l-.56.17a8 8 0 0 0 2.25 15.67Z"></path><path fill="#2c2c3d" d="M511 230.54c-.46-16.39-14.53-31.18-39.75-41.72-3.52-1.47-7.23-2.83-11.07-4.1C433 127.75 375.64 90.91 313 90.53h-1a164.51 164.51 0 0 0-159.5 124.15 107 107 0 0 0-47.29-9.92C49.16 205.85 3 250.51.14 306.44a107.34 107.34 0 0 0 106.41 113H215a8 8 0 1 0 0-16H107.34a91.35 91.35 0 0 1-91.22-96.16c2.44-47.58 41.71-85.58 89.4-86.51A91.43 91.43 0 0 1 154 233.53a8 8 0 0 0 12-5.43 148.15 148.15 0 0 1 146-121.57h.91c51.8.31 99.57 28.28 126.12 72.55a269.57 269.57 0 0 0-55-5.45c-32.82 0-63.8 5.4-87.23 15.19-25.22 10.54-39.29 25.33-39.75 41.72V419c0 16.72 14.12 31.83 39.77 42.54 23.43 9.8 54.41 15.19 87.23 15.19s63.8-5.39 87.23-15.19C496.88 450.83 511 435.72 511 419V230.54Zm-127-40.91c25.61 0 48.18 3.37 66.16 8.66a8.1 8.1 0 0 0 4.27 1.32C479.83 207.84 495 220 495 231.37c0 7.86-7.29 16.13-20.52 23.31a8 8 0 1 0 7.63 14.06 83 83 0 0 0 12.89-8.48v33.42c0 19.74-45.59 41.74-111 41.74s-111-22-111-41.74v-33.46a96.59 96.59 0 0 0 23.77 13.7c23.43 9.79 54.41 15.18 87.23 15.18a286.3 286.3 0 0 0 33.44-1.93 8 8 0 0 0-1.88-15.89A269.42 269.42 0 0 1 384 273.1c-65.41 0-111-22-111-41.73s45.59-41.74 111-41.74Zm0 271.1c-65.41 0-111-22-111-41.73v-33.81c40.69 33.2 143.87 38.55 202 12a8 8 0 0 0-6.63-14.55c-21.49 9.79-52.26 15.4-84.41 15.4-65.41 0-111-22-111-41.73v-33.78c47.12 38.45 174.81 38.51 222 0V419c.04 19.74-45.55 41.73-110.96 41.73Z"></path><path fill="#2c2c3d" d="M275.64 151.23a8 8 0 0 0-10.7-3.68 109.26 109.26 0 0 0-48 46.27 8 8 0 1 0 14.06 7.55 93.13 93.13 0 0 1 41-39.44 8 8 0 0 0 3.64-10.7zM86.62 263.75a62.6 62.6 0 0 0-27.89 28.18A8 8 0 0 0 73.09 299a46.47 46.47 0 0 1 20.73-21 8 8 0 1 0-7.2-14.29z"></path></g></svg>